<svg xmlns="http://www.w3.org/2000/svg" xmlns:xlink="http://www.w3.org/1999/xlink" viewBox="0 0 475.97 485.36"><defs><style>.cls-1{fill:url(#未命名的渐变_43);}.cls-2{fill:#d66c54;}.cls-3{fill:#dbb48a;}.cls-4{fill:#e88b58;}.cls-5{fill:#a0604a;}.cls-6{fill:#eacaad;}.cls-7{fill:#a86a6a;}.cls-8{fill:#af906e;}.cls-9{fill:#f9d0b6;}.cls-10{fill:#ea9139;}.cls-11{mask:url(#mask);}.cls-12{opacity:0.7;fill:url(#未命名的渐变_48);}.cls-13{fill:#f5d34c;}.cls-14{fill:#029087;}.cls-14,.cls-15,.cls-16,.cls-17,.cls-18,.cls-19{opacity:0.5;}.cls-15{fill:#e07671;}.cls-16{fill:#fff;}.cls-17{fill:#9f7352;}.cls-18{fill:#3888af;}.cls-19{fill:#76c7c9;}.cls-20{fill:#e5c4a8;}.cls-21{fill:#f2ccc7;}.cls-22{fill:#bf7058;}.cls-23{fill:#937460;}</style><linearGradient id="未命名的渐变_43" x1="254.47" y1="25.71" x2="251.2" y2="236.84" gradientUnits="userSpaceOnUse"><stop offset="0" stop-color="#333"/><stop offset="0.43" stop-color="#9a9a9a"/><stop offset="0.85" stop-color="#fafafa"/><stop offset="1" stop-color="#fff"/></linearGradient><mask id="mask" x="-68.25" y="-22.7" width="642" height="317.91" maskUnits="userSpaceOnUse"><rect class="cls-1" x="-68.25" y="-22.7" width="642" height="317.91"/></mask><linearGradient id="未命名的渐变_48" x1="265.5" y1="200.05" x2="265.5" y2="94.84" gradientUnits="userSpaceOnUse"><stop offset="0" stop-color="#ebd2cb"/><stop offset="0.07" stop-color="#ebd2cb"/><stop offset="0.14" stop-color="#eccfb4"/><stop offset="0.23" stop-color="#edcb98"/><stop offset="0.33" stop-color="#edc883"/><stop offset="0.43" stop-color="#eec777"/><stop offset="0.53" stop-color="#eec673"/><stop offset="0.66" stop-color="#e3c985"/><stop offset="0.93" stop-color="#c6d1b3"/><stop offset="1" stop-color="#bed3c0"/></linearGradient></defs><title>资源 1是</title><g id="图层_2" data-name="图层 2"><g id="图层_1-2" data-name="图层 1"><path class="cls-2" d="M397.13,415.53c5.78-31.33-32-123.75-32-123.75H164.7s-33,92.62-27.31,123.75c6.39,35.14,30.8,46.76,30.8,46.76h0a1.63,1.63,0,0,0,0,.44c9.88,11,43.18,22.54,96.45,22.54,52.9,0,86.58-13.63,96.46-22.54h0C373.3,454.34,391.32,447,397.13,415.53Z"/><path class="cls-3" d="M120.85,286.11,19.44,249.36s-27.89,6.39-16.85,34.87l107.2,31.58Z"/><path class="cls-3" d="M110.66,297c-5.81,13.36-.88,29.24,12,20.43,0,0,9-13.43,10.61-24.5C135.07,280.74,117.12,282.17,110.66,297Z"/><path class="cls-4" d="M162.36,298.56l-29.19-6-3.91-.8s-21.5,0-12.79,23.24l36,14Z"/><path class="cls-5" d="M162.38,298.75s110.4,22.66,175.48,7c0,0,31.38,83.67,26.73,107.49s-14.53,42.42-21.5,45.91-78.45,26.14-168.51,0L160.45,457l7.74,5.58s22.66,24.41,97,22.66c-.59,0,69.72-.58,95.87-22.66,0,0,24.66-13.79,30-28.39.33-.15,11.75-17.51,4.51-45.69,0,.58-7.83-41-30.49-96.75H164.7Z"/><path class="cls-6" d="M360.1,274.89c-19.51-5.2-54.83-8.68-95.17-8.68-39,0-73.38,3.26-93.24,8.19l-18,0v9.88c0,9.94,49.82,18,111.27,18s111.28-8.07,111.28-18v-9.3Z"/><ellipse class="cls-7" cx="264.93" cy="274.93" rx="111.27" ry="18.01"/><path class="cls-8" d="M1.09,264.89s-3.07,7,1.59,19.41l107.11,31.51s-2.48-8.05-.84-13.57C109.12,302.07,1.09,264.89,1.09,264.89Z"/><path class="cls-5" d="M114.39,303.45s.08,8,2.41,11.9l36.48,14,3.83-14.56Z"/><path class="cls-9" d="M172.88,362.71a7.2,7.2,0,0,1,6.14,8.08L175,400c0,.24-.11.46-.16.69l.09,0s-2.22,4.4,4.15,12.94c2,2.72-.59,14.83-12.11,6.11-9.06-6.86-6.84-18.88-6.19-21.63V398l4-29.16A7.2,7.2,0,0,1,172.88,362.71Z"/><circle class="cls-9" cx="174.46" cy="352.65" r="7.19"/><path class="cls-10" d="M188,287.46s74.74,13.08,158.47-.06C346.71,287.29,294.26,275.1,188,287.46Z"/><g class="cls-11"><path class="cls-12" d="M153.75,275.15s-3,20.18,118,18.06c114-2,105-18.06,105-18.06L476,22.43,55,19.09Z"/></g><path class="cls-13" d="M269,4.61,288.9,66a6.63,6.63,0,0,0,6.32,4.61h64.32a6.67,6.67,0,0,1,3.91,12.06l-52,37.93A6.66,6.66,0,0,0,309,128l19.88,61.35a6.66,6.66,0,0,1-10.24,7.45l-52-37.91a6.62,6.62,0,0,0-7.81,0l-52,37.91a6.66,6.66,0,0,1-10.24-7.45L216.4,128a6.67,6.67,0,0,0-2.42-7.45l-52-37.93a6.67,6.67,0,0,1,3.92-12.06h64.31A6.65,6.65,0,0,0,236.5,66L256.37,4.61a6.64,6.64,0,0,1,12.65,0"/><path class="cls-13" d="M381.37,150.26l-2.47,16.31a1.71,1.71,0,0,0,.92,1.78l14.7,7.4A1.71,1.71,0,0,1,394,179l-16.23,2.68a1.71,1.71,0,0,0-1.41,1.43l-2.47,16.31a1.7,1.7,0,0,1-3.19.52l-7.56-14.65a1.71,1.71,0,0,0-1.78-.9L345.17,187a1.7,1.7,0,0,1-1.49-2.88l11.56-11.74a1.73,1.73,0,0,0,.3-2L348,155.79a1.7,1.7,0,0,1,2.27-2.31l14.7,7.39a1.68,1.68,0,0,0,2-.32l11.56-11.74a1.7,1.7,0,0,1,2.89,1.45"/><path class="cls-13" d="M165.06,112.29l-3.27,21.6a2.26,2.26,0,0,0,1.21,2.36L182.48,146a2.26,2.26,0,0,1-.64,4.25l-21.5,3.56a2.26,2.26,0,0,0-1.86,1.89l-3.27,21.6a2.25,2.25,0,0,1-4.23.7l-10-19.41a2.26,2.26,0,0,0-2.37-1.19L117.1,161a2.26,2.26,0,0,1-2-3.82l15.31-15.55a2.25,2.25,0,0,0,.4-2.62l-10-19.41a2.25,2.25,0,0,1,3-3l19.47,9.79a2.23,2.23,0,0,0,2.61-.43l15.31-15.55a2.25,2.25,0,0,1,3.83,1.93"/><ellipse class="cls-14" cx="171.63" cy="204.52" rx="8.28" ry="8.3"/><ellipse class="cls-15" cx="208.2" cy="205.5" rx="3.85" ry="3.87"/><ellipse class="cls-16" cx="269.95" cy="214.55" rx="9.57" ry="9.6"/><ellipse class="cls-17" cx="260.68" cy="178.14" rx="8.28" ry="8.3"/><ellipse class="cls-18" cx="339.97" cy="171.07" rx="9.79" ry="9.82"/><ellipse class="cls-19" cx="298.08" cy="159.91" rx="8.28" ry="8.3"/><ellipse class="cls-17" cx="352.05" cy="225.65" rx="11.71" ry="11.75"/><path class="cls-20" d="M256.75,271.36s13,12,14,15,8,3,10-6-15-15-20-15S256.75,271.36,256.75,271.36Z"/><path class="cls-2" d="M245.75,251.36c-6.28,2.66-14,15-4,27s19.27-15.07,26-17C274.75,259.36,271.75,240.36,245.75,251.36Z"/><polygon class="cls-21" points="249.07 253.84 254.85 258.24 253.99 255.66 256.31 252.7 248.06 251.03 249.07 253.84"/><polygon class="cls-21" points="249.75 257.36 243.75 257.36 246.75 261.26 249.75 259.7 249.75 257.36"/><polygon class="cls-21" points="240.75 257.36 238.75 261.36 242.75 261.36 242.75 255.36 240.75 257.36"/><polygon class="cls-21" points="247.75 255.36 244.75 254.36 245.75 253.36 247.75 255.36"/><path class="cls-20" d="M303.5,247.4s-23.66,5.78-26.75,5.08-7.65,6.62-1,13c0,0,13,0,13.52-.29,7.73-3,15.76-8.75,17.28-11.26C309.15,249.66,303.5,247.4,303.5,247.4Z"/><path class="cls-22" d="M324.21,244c-2.19-4.49-10.38-5-17.23-9.54-4.11-2.75-2.73-3.25-7.71-3.69-9.81-.86,7.43,28,5,34.57l11.05,0c1.34-3.9,3.87-4.6,4.5-5.63C321.59,256.85,326.76,249.27,324.21,244Z"/><polygon class="cls-21" points="319.1 248.68 322.21 243.55 317.32 244.09 317.1 247.47 319.1 248.68"/><polygon class="cls-21" points="316.77 241.99 314.39 238.2 312.31 241.62 317.44 244.74 316.77 241.99"/><path class="cls-23" d="M188.75,222.36s9-15,32,0-4,25-16,21S182.75,227.36,188.75,222.36Z"/><path class="cls-6" d="M194.75,223.36s12,1,14,2,9-1,9-1l-4,3,10,9s-9-4-12-5-12,3-13,3,6-6,7-6S196.75,223.36,194.75,223.36Z"/></g></g></svg>