<svg xmlns="http://www.w3.org/2000/svg" viewBox="0 0 548.31 642.62"><defs><style>.cls-1{fill:#8ea862;}.cls-2{fill:#a3846f;}.cls-3,.cls-5{fill:none;stroke-miterlimit:10;}.cls-3{stroke:#af8d75;stroke-width:14px;}.cls-4{fill:#d3b897;}.cls-5{stroke:#cca689;stroke-width:5px;}.cls-6{fill:#937b6a;}.cls-7{fill:#b8bf6d;}</style></defs><title>是资源 2是</title><g id="图层_2" data-name="图层 2"><g id="图层_1-2" data-name="图层 1"><path class="cls-1" d="M209.31,351.09s42-3,61,30,28,17,31,36-57,42-77,26S183.31,367.09,209.31,351.09Z"/><path class="cls-2" d="M71.06,179,17.31,33.09s12-64,121-14l61.18,145.85Z"/><path class="cls-3" d="M28.31,17.09s47,68,48,97,15.2,72.56,15.2,72.56"/><path class="cls-3" d="M52.31,5.09s41,79,45,100,37.57,62.89,51,72"/><path class="cls-3" d="M128.31,19.09s38.85,113.31,66,156"/><path class="cls-3" d="M77.31,4.09s24,66,39,78-11-71-11-71"/><ellipse class="cls-2" cx="265.78" cy="594.72" rx="260.97" ry="46.38"/><path class="cls-2" d="M5.31,209.69s-4.88,19.57.06,64.88-2.15,64.28-1.1,74.92S-5,445.19,3.16,501.72s5.15,92.55,2.15,92.55h521s6-203.41-8-216.12,2-60.39,3-69.93,8-93.23,6-98.53S5.31,209.69,5.31,209.69Z"/><path class="cls-3" d="M481.4,236.06s.41,79.66-3.59,111.27,9,63.22,9,70.59,7,109.58,6,128.54-5.8,10.52.1,69"/><path class="cls-3" d="M440.07,244.38s-30.76,130.59.24,156,18,143,18,148.33S457,626.27,457,626.27"/><path class="cls-3" d="M404.31,248.89s-71,140.91-34,167.4,77,18,67,85.81a1100.94,1100.94,0,0,0-10.84,129.16"/><path class="cls-3" d="M315.34,255.34s-21,138.7,13,188.49,27.17,194.45,27.17,194.45"/><path class="cls-3" d="M377.31,461.84s36,35,26,112.3-22,25.43-22,25.43Z"/><path class="cls-3" d="M266.31,256.31s11,135.61,27,182.22-19.46,202.54-19.46,202.54"/><path class="cls-3" d="M229.79,256.31s-9.48,99.59,8.52,135.61,21,104.88,17,112.3-19,136.67-19,136.67"/><path class="cls-3" d="M180.94,253.61s-22.63,101.23-7.63,128.77,16,97.47,16,117.6V638.77"/><path class="cls-3" d="M137.31,250s-1,130.31,7,157.86S164,522.53,157.65,548.34s-9.34,88.31-9.34,88.31"/><path class="cls-3" d="M92.61,244.38s-31.3,115.75-6.3,164.49S110.89,551.37,98.1,561.7s-21.79,65.42-21.79,65.42"/><path class="cls-3" d="M37.31,231.94s-4,115.48,5,168.45,9,174.81,6,187.53-5,28.6-5,28.6"/><ellipse class="cls-4" cx="266.34" cy="209.78" rx="260.97" ry="46.38"/><path class="cls-5" d="M499.31,207.57c-128.5,48.21-344.38,49-457.5,2.65-31-12.71,111-39.2,184-38.14,85.62,1.24,171.28-10.84,220,20.13,5,3.18-3,18-51,26.49-54.06,9.54-165.86,15.56-224,5.3-18-3.18-101.4-7.41-61-25.43,19-8.48,136-21.19,167-13.77,23.76,5.68,53.33,6.23,51,22.24-2,13.78-103,11.66-122,5.3-17.12-5.73,41-19.79,58-13.77"/><path class="cls-2" d="M461,297.64s-78.71,46.45-104.71,49.45-59.43,166.22,34.88,135.6c91.12-29.6,108.12-29.6,108.12-29.6Z"/><path class="cls-6" d="M358.22,487.38s26.56,36.8,70.18,39.74,104.75-3,98.27-12.06,29.56-21.44-68.16-53.18Z"/><path class="cls-3" d="M428.31,346.09s-24,26-41,30-52.6,6.85-52.6,6.85"/><path class="cls-3" d="M334.71,455.26s52.92-45.56,106.76-41.86"/><path class="cls-3" d="M381.51,474.81s17.8-27.72,50.8-28.72,44.74,4.67,44.74,4.67"/><ellipse class="cls-4" cx="482.81" cy="373.09" rx="65.5" ry="80"/><path class="cls-5" d="M492.31,440.09c-39.5-3.5-64.5-31.5-64.5-71.5,0-43.17,27-57,58-57,34.35,0,50.88,26.72,53,61,1.7,27.43-24.57,50.31-52,52-21.94,1.36-44.64-23-46-45-1.08-17.55,17.45-41.91,35-43,14.05-.86,38.13,23,39,37,.7,11.24-16.76,25.31-28,26-9,.56-19.44-9-20-18-.44-7.19,9.81-17.55,17-18"/><path class="cls-2" d="M391.31,351.09l20,62s-9.72,53-43,36c-49-25-59-71-59-71Z"/><ellipse class="cls-4" cx="349.81" cy="364.59" rx="42.5" ry="50.5"/><path class="cls-6" d="M368.31,449.09s29,12,54,11-11-47-11-47S414.31,466.09,368.31,449.09Z"/><path class="cls-5" d="M382.81,370.59c0,23-29.09,30.26-41,26-14-5-23.83-26.87-23.5-30.5,1-11,13.63-30.3,16-32,7-5,12.67-5,15-5,1,0,14,7,11,5-1.24-.82,10.13,8.79,11,10,10.77,15-.23,26.54-3.5,28.5-5,3-12,3-23-1-13.45-4.89-3-25.14,5-24"/><path class="cls-7" d="M73.81,279.59s10.11,12.09,20.56,22.05-2.56,17.95,6.44,41.95,21,4,20,25-9,26-20,27-27-19-27,0-37,12-37-23-23-55,0-63,39-15,37-18S58.81,279.59,73.81,279.59Z"/><path class="cls-7" d="M121.31,406.09s35-16,38-8,20-6,30-6c12,0,4,30.28,0,32.14s15.26,14.12-3.37,10-16.73-4.71-28.18,9.08-28.45,21.79-36.45,8.79,30.11-23.66,22.06-26.33S116.31,424.09,121.31,406.09Z"/><path class="cls-7" d="M98.57,443.3c-9.14-2.8-32.26,9.79-21.26,31.79s2.57,36.37,7,37c7,1,12-10.16,16-25.58s20-4.42,20-11.42C120.31,466.49,111.85,447.37,98.57,443.3Z"/></g></g></svg>