<svg xmlns="http://www.w3.org/2000/svg" viewBox="0 0 222 166.05"><defs><style>.cls-1{fill:#ccaa85;}.cls-2{fill:#a3846f;}</style></defs><title>是资源 3是</title><g id="图层_2" data-name="图层 2"><g id="图层_1-2" data-name="图层 1"><path class="cls-1" d="M34.21,130S3.7,132.78.9,136.51s2.8,17.7,2.8,17.7a30.1,30.1,0,0,0,25.85,11.65c17-1.17,29.12-9.55,29.35-10.72s10.25-7.92,12.35-27.72,75-79.89,82.92-85.48c8.34-5.89,59.63-25.39,66.62-27.72S202.39-.45,199.59,0,116,41,62.16,109.72C62.16,109.72,54,123.7,34.21,130Z"/><path class="cls-2" d="M222,13.52s-59.63,22.13-67.78,28.42-76.4,61-82.92,85.48c0,0-4.89-3.49,9.78-20.73s70.35-66.85,75-69.64,54.33-27.95,61-27.95A4.49,4.49,0,0,1,222,13.52Z"/><path class="cls-2" d="M.67,137s8.9,10.49,16.07,11.42,15.14,6.52,33.08,0S70.39,126,70.47,125.33s.78,2.09.78,2.09-.31,18-14.13,29.37c-.39.2-33.62,22.34-53.42-2.58C3.7,154.21-1.89,140.7.67,137Z"/></g></g></svg>