<svg xmlns="http://www.w3.org/2000/svg" viewBox="0 0 675.75 547.69"><defs><style>.cls-1{fill:#231815;opacity:0.2;}.cls-2{fill:#a3846f;}.cls-3,.cls-5{fill:none;stroke-miterlimit:10;}.cls-3{stroke:#af8d75;stroke-width:14px;}.cls-4{fill:#d3b897;}.cls-5{stroke:#cca689;stroke-width:5px;}.cls-6{fill:#e5c4a8;}.cls-7{fill:#bf7058;}.cls-8{fill:#d6b9a3;}.cls-9{fill:#d66c54;}</style></defs><title>是资源 5是</title><g id="图层_2" data-name="图层 2"><g id="图层_1-2" data-name="图层 1"><path class="cls-1" d="M24.52,443.69s-46,15-12,45c21.87,19.29,59-7,79-3s221,38,366,12c0,0-6,1-7,18s12,32,53,32,77-39,77-39,14.33-4.1,17-7c8.8-9.51,18-37,18-37l-68-60.54Z"/><ellipse class="cls-2" cx="335.99" cy="431.32" rx="260.97" ry="46.38"/><path class="cls-2" d="M75.52,46.29s-4.87,19.57.07,64.88-2.15,64.28-1.11,74.92-9.26,95.7-1.11,152.23,5.15,92.55,2.15,92.55h521s6-203.41-8-216.13,2-60.38,3-69.92,8-93.23,6-98.53S75.52,46.29,75.52,46.29Z"/><path class="cls-3" d="M551.61,72.66S552,152.32,548,183.93s9,63.22,9,70.59,7,109.58,6,128.54-5.8,10.52.1,69"/><path class="cls-3" d="M510.28,81s-30.76,130.59.24,156,18,143,18,148.33-1.31,77.55-1.31,77.55"/><path class="cls-3" d="M474.52,85.49s-71,140.91-34,167.39,77,18,67,85.82a1100.94,1100.94,0,0,0-10.84,129.16"/><path class="cls-3" d="M385.55,91.94s-21,138.7,13,188.49S425.7,474.88,425.7,474.88"/><path class="cls-3" d="M447.52,298.44s36,35,26,112.3-22,25.43-22,25.43Z"/><path class="cls-3" d="M336.52,92.91s11,135.61,27,182.22-19.46,202.54-19.46,202.54"/><path class="cls-3" d="M300,92.91s-9.49,99.59,8.51,135.61,21,104.88,17,112.3-19,136.67-19,136.67"/><path class="cls-3" d="M251.15,90.21S228.52,191.44,243.52,219s16,97.47,16,117.6V475.37"/><path class="cls-3" d="M207.52,86.55s-1,130.31,7,157.86,19.67,114.72,13.34,140.53-9.34,88.31-9.34,88.31"/><path class="cls-3" d="M162.83,81s-31.31,115.75-6.31,164.49S181.1,388,168.31,398.3s-21.79,65.42-21.79,65.42"/><path class="cls-3" d="M107.52,68.54s-4,115.48,5,168.45,9,174.81,6,187.53-5,28.6-5,28.6"/><ellipse class="cls-4" cx="336.55" cy="46.38" rx="260.97" ry="46.38"/><path class="cls-5" d="M569.52,44.17C441,92.38,225.14,93.21,112,46.82,81,34.11,223,7.62,296,8.68,381.65,9.92,467.3-2.16,516,28.81c5,3.18-3,18-51,26.49-54,9.54-165.86,15.56-224,5.29-18-3.17-101.4-7.4-61-25.42C199,26.69,316,14,347,21.39c23.76,5.69,53.33,6.23,51,22.25-2,13.78-103,11.66-122,5.3-17.12-5.73,41-19.79,58-13.77"/><path class="cls-6" d="M627.09,319.12s9.07,108-1.47,124.34-37.82,9.42-39.68,1.59,6.75-11.25,6.75-11.25,19.54-29.15,18-113.37S627.09,319.12,627.09,319.12Z"/><path class="cls-7" d="M572.52,288.69c10.92-4.27,16-33,26-39,7.11-4.25,21-2,33,3,14.42,6,19,5,19,24s7.12,36.47,17,42c8.52,4.77,15.76,34-7,20-21.49-13.23-71.14-19.11-110-23C520.52,312.69,549.52,297.69,572.52,288.69Z"/><path class="cls-8" d="M580.56,431.82s42.38,25.54,34.45,37.76-20.4,32.44-36.44,23.34-5.54-19.48-23.33-22.84S538,424,580.56,431.82Z"/><path class="cls-9" d="M513.11,390.51c18.94-9.91,55.91-27.09,80.4-1.43s23.38,57.42-.87,69.46-71,43-84.21,15.93S494.41,400.28,513.11,390.51Z"/><path class="cls-7" d="M45.52,384.69s84-15,86,26-41,68-50,65-56,0-57-32S31.52,386.69,45.52,384.69Z"/></g></g></svg>